<?xml version="1.0" encoding="UTF-8" standalone="no"?> <!-- Created with Vectornator for iOS (http://vectornator.io/) --><!DOCTYPE svg PUBLIC "-//W3C//DTD SVG 1.1//EN" "http://www.w3.org/Graphics/SVG/1.1/DTD/svg11.dtd">
<svg style="fill-rule:evenodd;clip-rule:evenodd;stroke-linecap:round;stroke-linejoin:round;" xmlns:vectornator="http://vectornator.io" xmlns:xlink="http://www.w3.org/1999/xlink" xmlns="http://www.w3.org/2000/svg" xml:space="preserve" version="1.1" viewBox="0 0 400 400">
<metadata>
<vectornator:setting key="DisplayWhiteBackground" value="0"/>
<vectornator:setting key="RulersVisible" value="1"/>
<vectornator:setting key="GridSpacing" value="36"/>
<vectornator:setting key="Units" value="Pixels"/>
<vectornator:setting key="New" value="1"/>
<vectornator:setting key="DynamicGuides" value="0"/>
<vectornator:setting key="SnapToPoints" value="0"/>
<vectornator:setting key="CMYKEnabledKey" value="0"/>
<vectornator:setting key="SnapToGrid" value="0"/>
<vectornator:setting key="SnapToGuides" value="1"/>
<vectornator:setting key="SnapToEdges" value="0"/>
</metadata>
<defs>
<linearGradient y1="-803.36" id="LinearGradient" x1="-7708.8" y2="-714.907" x2="-7633.15" gradientUnits="userSpaceOnUse" gradientTransform="matrix(-0.0231935 -0.11631 0.11631 -0.0231935 105.408 -832.743)">
<stop stop-color="#f0ca33" offset="0"/>
<stop stop-color="#ffffff" offset="1"/>
</linearGradient>
<linearGradient y1="94.2521" id="LinearGradient_2" x1="199.121" y2="94.2521" x2="199.342" gradientUnits="userSpaceOnUse" gradientTransform="matrix(1 0 0 1 0 0)">
<stop stop-color="#f0ca33" offset="0"/>
<stop stop-color="#ffffff" offset="1"/>
</linearGradient>
<linearGradient y1="100.377" id="LinearGradient_3" x1="201.142" y2="100.377" x2="201.457" gradientUnits="userSpaceOnUse" gradientTransform="matrix(1 0 0 1 0 0)">
<stop stop-color="#f0ca33" offset="0"/>
<stop stop-color="#ffffff" offset="1"/>
</linearGradient>
<linearGradient y1="110.337" id="LinearGradient_4" x1="194.188" y2="110.337" x2="200.459" gradientUnits="userSpaceOnUse" gradientTransform="matrix(1 0 0 1 0 0)">
<stop stop-color="#f0ca33" offset="0"/>
<stop stop-color="#ffffff" offset="1"/>
</linearGradient>
<linearGradient y1="0" id="LinearGradient_5" x1="0" y2="0" x2="0" gradientUnits="userSpaceOnUse" gradientTransform="matrix(1 0 0 1 0 0)">
<stop stop-color="#f0ca33" offset="0"/>
<stop stop-color="#ffffff" offset="1"/>
</linearGradient>
<linearGradient y1="103.659" id="LinearGradient_6" x1="201.838" y2="103.659" x2="202.342" gradientUnits="userSpaceOnUse" gradientTransform="matrix(1 0 0 1 0 0)">
<stop stop-color="#f0ca33" offset="0"/>
<stop stop-color="#ffffff" offset="1"/>
</linearGradient>
<linearGradient y1="103.659" id="LinearGradient_7" x1="201.838" y2="103.659" x2="202.342" gradientUnits="userSpaceOnUse" gradientTransform="matrix(1 0 0 1 0 0)">
<stop stop-color="#f0ca33" offset="0"/>
<stop stop-color="#ffffff" offset="1"/>
</linearGradient>
<linearGradient y1="100.416" id="LinearGradient_8" x1="201.056" y2="100.416" x2="201.457" gradientUnits="userSpaceOnUse" gradientTransform="matrix(1 0 0 1 0 0)">
<stop stop-color="#f0ca33" offset="0"/>
<stop stop-color="#ffffff" offset="1"/>
</linearGradient>
<linearGradient y1="100.416" id="LinearGradient_9" x1="201.056" y2="100.416" x2="201.457" gradientUnits="userSpaceOnUse" gradientTransform="matrix(1 0 0 1 0 0)">
<stop stop-color="#f0ca33" offset="0"/>
<stop stop-color="#ffffff" offset="1"/>
</linearGradient>
<linearGradient y1="-813.123" id="LinearGradient_10" x1="-8268.64" y2="-813.123" x2="-7728.96" gradientUnits="userSpaceOnUse" gradientTransform="matrix(-0.0231935 -0.11631 0.11631 -0.0231935 105.408 -832.743)">
<stop stop-color="#f0ca33" offset="0"/>
<stop stop-color="#ffffff" offset="1"/>
</linearGradient>
<linearGradient y1="-758.994" id="LinearGradient_11" x1="-8203.49" y2="-758.994" x2="-7881.9" gradientUnits="userSpaceOnUse" gradientTransform="matrix(-0.0231935 -0.11631 0.11631 -0.0231935 105.408 -832.743)">
<stop stop-color="#f0ca33" offset="0"/>
<stop stop-color="#ffffff" offset="1"/>
</linearGradient>
<linearGradient y1="-818.152" id="LinearGradient_12" x1="-8238.33" y2="-818.152" x2="-7698.65" gradientUnits="userSpaceOnUse" gradientTransform="matrix(-0.0231935 -0.11631 0.11631 -0.0231935 105.408 -832.743)">
<stop stop-color="#f0ca33" offset="0"/>
<stop stop-color="#ffffff" offset="1"/>
</linearGradient>
<linearGradient y1="-810.851" id="LinearGradient_13" x1="-8198.97" y2="-810.851" x2="-7915.35" gradientUnits="userSpaceOnUse" gradientTransform="matrix(-0.0231935 -0.11631 0.11631 -0.0231935 105.408 -832.743)">
<stop stop-color="#f0ca33" offset="0"/>
<stop stop-color="#ffffff" offset="1"/>
</linearGradient>
<linearGradient y1="-762.297" id="LinearGradient_14" x1="-8238.33" y2="-762.297" x2="-7698.65" gradientUnits="userSpaceOnUse" gradientTransform="matrix(-0.0231935 -0.11631 0.11631 -0.0231935 105.408 -832.743)">
<stop stop-color="#f0ca33" offset="0"/>
<stop stop-color="#ffffff" offset="1"/>
</linearGradient>
<linearGradient y1="-765.071" id="LinearGradient_15" x1="-8271.81" y2="-765.071" x2="-7732.12" gradientUnits="userSpaceOnUse" gradientTransform="matrix(-0.0231935 -0.11631 0.11631 -0.0231935 105.408 -832.743)">
<stop stop-color="#f0ca33" offset="0"/>
<stop stop-color="#ffffff" offset="1"/>
</linearGradient>
<linearGradient y1="103.794" id="LinearGradient_16" x1="201.845" y2="103.794" x2="202.106" gradientUnits="userSpaceOnUse" gradientTransform="matrix(1 0 0 1 0 0)">
<stop stop-color="#f0ca33" offset="0"/>
<stop stop-color="#ffffff" offset="1"/>
</linearGradient>
<linearGradient y1="103.794" id="LinearGradient_17" x1="201.845" y2="103.794" x2="202.106" gradientUnits="userSpaceOnUse" gradientTransform="matrix(1 0 0 1 0 0)">
<stop stop-color="#f0ca33" offset="0"/>
<stop stop-color="#ffffff" offset="1"/>
</linearGradient>
<linearGradient y1="-745.685" id="LinearGradient_18" x1="-8238.33" y2="-745.685" x2="-7698.65" gradientUnits="userSpaceOnUse" gradientTransform="matrix(-0.0231935 -0.11631 0.11631 -0.0231935 105.408 -832.743)">
<stop stop-color="#f0ca33" offset="0"/>
<stop stop-color="#ffffff" offset="1"/>
</linearGradient>
<linearGradient y1="100.584" id="LinearGradient_19" x1="201.054" y2="100.584" x2="201.142" gradientUnits="userSpaceOnUse" gradientTransform="matrix(1 0 0 1 0 0)">
<stop stop-color="#f0ca33" offset="0"/>
<stop stop-color="#ffffff" offset="1"/>
</linearGradient>
<linearGradient y1="100.584" id="LinearGradient_20" x1="201.054" y2="100.584" x2="201.142" gradientUnits="userSpaceOnUse" gradientTransform="matrix(1 0 0 1 0 0)">
<stop stop-color="#f0ca33" offset="0"/>
<stop stop-color="#ffffff" offset="1"/>
</linearGradient>
<linearGradient y1="-747.586" id="LinearGradient_21" x1="-8238.33" y2="-747.586" x2="-7698.65" gradientUnits="userSpaceOnUse" gradientTransform="matrix(-0.0231935 -0.11631 0.11631 -0.0231935 105.408 -832.743)">
<stop stop-color="#f0ca33" offset="0"/>
<stop stop-color="#ffffff" offset="1"/>
</linearGradient>
<linearGradient y1="0" id="LinearGradient_22" x1="0" y2="0" x2="0" gradientUnits="userSpaceOnUse" gradientTransform="matrix(1 0 0 1 0 0)">
<stop stop-color="#f0ca33" offset="0"/>
<stop stop-color="#ffffff" offset="1"/>
</linearGradient>
<linearGradient y1="0" id="LinearGradient_23" x1="0" y2="0" x2="0" gradientUnits="userSpaceOnUse" gradientTransform="matrix(1 0 0 1 0 0)">
<stop stop-color="#f0ca33" offset="0"/>
<stop stop-color="#ffffff" offset="1"/>
</linearGradient>
<linearGradient y1="-747.967" id="LinearGradient_24" x1="-7935.14" y2="-747.967" x2="-7815.86" gradientUnits="userSpaceOnUse" gradientTransform="matrix(-0.0231935 -0.11631 0.11631 -0.0231935 105.408 -832.743)">
<stop stop-color="#f0ca33" offset="0"/>
<stop stop-color="#ffffff" offset="1"/>
</linearGradient>
<linearGradient y1="105.292" id="LinearGradient_25" x1="189.178" y2="105.292" x2="238.456" gradientUnits="userSpaceOnUse" gradientTransform="matrix(1 0 0 1 0 0)">
<stop stop-color="#f0ca33" offset="0"/>
<stop stop-color="#ffffff" offset="1"/>
</linearGradient>
<linearGradient y1="-803.36" id="LinearGradient_26" x1="-7708.8" y2="-714.907" x2="-7633.15" gradientUnits="userSpaceOnUse" gradientTransform="matrix(0.0737398 -0.112059 0.112059 0.0737398 890.049 -721.963)">
<stop stop-color="#f0ca33" offset="0"/>
<stop stop-color="#ffffff" offset="1"/>
</linearGradient>
<linearGradient y1="98.821" id="LinearGradient_27" x1="228.885" y2="98.821" x2="229.238" gradientUnits="userSpaceOnUse" gradientTransform="matrix(1 0 0 1 0 0)">
<stop stop-color="#f0ca33" offset="0"/>
<stop stop-color="#ffffff" offset="1"/>
</linearGradient>
<linearGradient y1="105.4" id="LinearGradient_28" x1="225.601" y2="105.4" x2="226.119" gradientUnits="userSpaceOnUse" gradientTransform="matrix(1 0 0 1 0 0)">
<stop stop-color="#f0ca33" offset="0"/>
<stop stop-color="#ffffff" offset="1"/>
</linearGradient>
<linearGradient y1="110.192" id="LinearGradient_29" x1="207.381" y2="110.192" x2="222.133" gradientUnits="userSpaceOnUse" gradientTransform="matrix(1 0 0 1 0 0)">
<stop stop-color="#f0ca33" offset="0"/>
<stop stop-color="#ffffff" offset="1"/>
</linearGradient>
<linearGradient y1="0" id="LinearGradient_30" x1="0" y2="0" x2="0" gradientUnits="userSpaceOnUse" gradientTransform="matrix(1 0 0 1 0 0)">
<stop stop-color="#f0ca33" offset="0"/>
<stop stop-color="#ffffff" offset="1"/>
</linearGradient>
<linearGradient y1="108.671" id="LinearGradient_31" x1="223.481" y2="108.671" x2="224.297" gradientUnits="userSpaceOnUse" gradientTransform="matrix(1 0 0 1 0 0)">
<stop stop-color="#f0ca33" offset="0"/>
<stop stop-color="#ffffff" offset="1"/>
</linearGradient>
<linearGradient y1="108.671" id="LinearGradient_32" x1="223.481" y2="108.671" x2="224.297" gradientUnits="userSpaceOnUse" gradientTransform="matrix(1 0 0 1 0 0)">
<stop stop-color="#f0ca33" offset="0"/>
<stop stop-color="#ffffff" offset="1"/>
</linearGradient>
<linearGradient y1="105.4" id="LinearGradient_33" x1="225.47" y2="105.4" x2="226.119" gradientUnits="userSpaceOnUse" gradientTransform="matrix(1 0 0 1 0 0)">
<stop stop-color="#f0ca33" offset="0"/>
<stop stop-color="#ffffff" offset="1"/>
</linearGradient>
<linearGradient y1="105.4" id="LinearGradient_34" x1="225.47" y2="105.4" x2="226.119" gradientUnits="userSpaceOnUse" gradientTransform="matrix(1 0 0 1 0 0)">
<stop stop-color="#f0ca33" offset="0"/>
<stop stop-color="#ffffff" offset="1"/>
</linearGradient>
<linearGradient y1="-813.123" id="LinearGradient_35" x1="-8268.64" y2="-813.123" x2="-7728.96" gradientUnits="userSpaceOnUse" gradientTransform="matrix(0.0737398 -0.112059 0.112059 0.0737398 890.049 -721.963)">
<stop stop-color="#f0ca33" offset="0"/>
<stop stop-color="#ffffff" offset="1"/>
</linearGradient>
<linearGradient y1="-758.994" id="LinearGradient_36" x1="-8203.49" y2="-758.994" x2="-7881.9" gradientUnits="userSpaceOnUse" gradientTransform="matrix(0.0737398 -0.112059 0.112059 0.0737398 890.049 -721.963)">
<stop stop-color="#f0ca33" offset="0"/>
<stop stop-color="#ffffff" offset="1"/>
</linearGradient>
<linearGradient y1="-818.152" id="LinearGradient_37" x1="-8238.33" y2="-818.152" x2="-7698.65" gradientUnits="userSpaceOnUse" gradientTransform="matrix(0.0737398 -0.112059 0.112059 0.0737398 890.049 -721.963)">
<stop stop-color="#f0ca33" offset="0"/>
<stop stop-color="#ffffff" offset="1"/>
</linearGradient>
<linearGradient y1="-810.851" id="LinearGradient_38" x1="-8198.97" y2="-810.851" x2="-7915.35" gradientUnits="userSpaceOnUse" gradientTransform="matrix(0.0737398 -0.112059 0.112059 0.0737398 890.049 -721.963)">
<stop stop-color="#f0ca33" offset="0"/>
<stop stop-color="#ffffff" offset="1"/>
</linearGradient>
<linearGradient y1="-762.297" id="LinearGradient_39" x1="-8238.33" y2="-762.297" x2="-7698.65" gradientUnits="userSpaceOnUse" gradientTransform="matrix(0.0737398 -0.112059 0.112059 0.0737398 890.049 -721.963)">
<stop stop-color="#f0ca33" offset="0"/>
<stop stop-color="#ffffff" offset="1"/>
</linearGradient>
<linearGradient y1="-765.071" id="LinearGradient_40" x1="-8271.81" y2="-765.071" x2="-7732.12" gradientUnits="userSpaceOnUse" gradientTransform="matrix(0.0737398 -0.112059 0.112059 0.0737398 890.049 -721.963)">
<stop stop-color="#f0ca33" offset="0"/>
<stop stop-color="#ffffff" offset="1"/>
</linearGradient>
<linearGradient y1="108.686" id="LinearGradient_41" x1="223.479" y2="108.686" x2="223.9" gradientUnits="userSpaceOnUse" gradientTransform="matrix(1 0 0 1 0 0)">
<stop stop-color="#f0ca33" offset="0"/>
<stop stop-color="#ffffff" offset="1"/>
</linearGradient>
<linearGradient y1="108.686" id="LinearGradient_42" x1="223.479" y2="108.686" x2="223.9" gradientUnits="userSpaceOnUse" gradientTransform="matrix(1 0 0 1 0 0)">
<stop stop-color="#f0ca33" offset="0"/>
<stop stop-color="#ffffff" offset="1"/>
</linearGradient>
<linearGradient y1="-745.685" id="LinearGradient_43" x1="-8238.33" y2="-745.685" x2="-7698.65" gradientUnits="userSpaceOnUse" gradientTransform="matrix(0.0737398 -0.112059 0.112059 0.0737398 890.049 -721.963)">
<stop stop-color="#f0ca33" offset="0"/>
<stop stop-color="#ffffff" offset="1"/>
</linearGradient>
<linearGradient y1="105.406" id="LinearGradient_44" x1="225.467" y2="105.406" x2="225.601" gradientUnits="userSpaceOnUse" gradientTransform="matrix(1 0 0 1 0 0)">
<stop stop-color="#f0ca33" offset="0"/>
<stop stop-color="#ffffff" offset="1"/>
</linearGradient>
<linearGradient y1="105.406" id="LinearGradient_45" x1="225.467" y2="105.406" x2="225.601" gradientUnits="userSpaceOnUse" gradientTransform="matrix(1 0 0 1 0 0)">
<stop stop-color="#f0ca33" offset="0"/>
<stop stop-color="#ffffff" offset="1"/>
</linearGradient>
<linearGradient y1="-747.586" id="LinearGradient_46" x1="-8238.33" y2="-747.586" x2="-7698.65" gradientUnits="userSpaceOnUse" gradientTransform="matrix(0.0737398 -0.112059 0.112059 0.0737398 890.049 -721.963)">
<stop stop-color="#f0ca33" offset="0"/>
<stop stop-color="#ffffff" offset="1"/>
</linearGradient>
<linearGradient y1="0" id="LinearGradient_47" x1="0" y2="0" x2="0" gradientUnits="userSpaceOnUse" gradientTransform="matrix(1 0 0 1 0 0)">
<stop stop-color="#f0ca33" offset="0"/>
<stop stop-color="#ffffff" offset="1"/>
</linearGradient>
<linearGradient y1="0" id="LinearGradient_48" x1="0" y2="0" x2="0" gradientUnits="userSpaceOnUse" gradientTransform="matrix(1 0 0 1 0 0)">
<stop stop-color="#f0ca33" offset="0"/>
<stop stop-color="#ffffff" offset="1"/>
</linearGradient>
<linearGradient y1="-747.967" id="LinearGradient_49" x1="-7935.14" y2="-747.967" x2="-7815.86" gradientUnits="userSpaceOnUse" gradientTransform="matrix(0.0737398 -0.112059 0.112059 0.0737398 890.049 -721.963)">
<stop stop-color="#f0ca33" offset="0"/>
<stop stop-color="#ffffff" offset="1"/>
</linearGradient>
</defs>
<g id="Layer 1" vectornator:layerName="Layer 1">
<path d="M54.1316+59.8087L67.2316+59.8087C68.2982+59.8087+69.3649+59.8087+70.4316+59.8087C71.5649+59.8087+72.3649+60.042+72.8316+60.5087C73.2316+60.842+73.4649+61.342+73.5316+62.0087C73.5982+62.6087+73.6982+63.2087+73.8316+63.8087C73.9649+64.8754+74.0982+65.9754+74.2316+67.1087C74.4316+68.1754+74.5982+69.2754+74.7316+70.4087C75.4649+74.6087+76.0649+78.8754+76.5316+83.2087C77.0649+87.542+77.6982+91.842+78.4316+96.1087C78.6982+97.442+78.8982+98.8087+79.0316+100.209C79.1649+101.609+79.3649+102.975+79.6316+104.309C79.6982+104.642+79.7649+104.975+79.8316+105.309C79.8982+105.642+80.0649+105.909+80.3316+106.109C80.4649+106.175+80.5649+106.242+80.6316+106.309C80.7649+106.375+80.9316+106.342+81.1316+106.209C81.6649+106.075+82.0982+105.675+82.4316+105.009C82.7649+104.342+83.0982+103.742+83.4316+103.209C84.2316+101.675+84.9982+100.175+85.7316+98.7087C86.4649+97.1754+87.2649+95.642+88.1316+94.1087C90.2649+90.042+92.3982+85.9754+94.5316+81.9087C96.7316+77.7754+98.8982+73.642+101.032+69.5087C101.565+68.442+102.098+67.4087+102.632+66.4087C103.232+65.342+103.798+64.2754+104.332+63.2087C104.598+62.6754+104.898+62.142+105.232+61.6087C105.565+61.0754+106.032+60.642+106.632+60.3087C107.098+59.9754+107.632+59.8087+108.232+59.8087C108.898+59.8087+109.565+59.8087+110.232+59.8087L116.732+59.8087L123.632+59.8087C124.232+59.8087+124.832+59.8087+125.432+59.8087C126.098+59.8087+126.565+59.942+126.832+60.2087C127.498+60.6087+127.698+61.3754+127.432+62.5087C127.232+63.5754+127.032+64.6754+126.832+65.8087L123.832+80.8087L116.332+118.009L114.632+126.709C114.498+127.442+114.332+128.175+114.132+128.909C113.932+129.575+113.598+130.075+113.132+130.409C112.665+130.742+112.132+130.942+111.532+131.009C110.932+131.009+110.265+131.009+109.532+131.009L104.732+131.009L102.032+131.009C101.565+130.875+101.132+130.775+100.732+130.709C100.398+130.642+100.132+130.409+99.9316+130.009C99.7316+129.675+99.6649+129.242+99.7316+128.709C99.8649+128.175+99.9982+127.609+100.132+127.009L101.132+121.909L106.332+96.2087C106.465+95.2754+106.598+94.4087+106.732+93.6087C106.932+92.742+107.098+91.8754+107.232+91.0087C107.365+90.4754+107.498+89.942+107.632+89.4087C107.765+88.8087+107.832+88.242+107.832+87.7087C107.765+87.242+107.765+86.742+107.832+86.2087C107.965+85.6754+107.865+85.342+107.532+85.2087C107.332+85.142+107.165+85.1754+107.032+85.3087C106.898+85.442+106.798+85.542+106.732+85.6087C106.398+85.8754+106.098+86.2087+105.832+86.6087C105.632+86.942+105.432+87.2754+105.232+87.6087C104.632+88.6087+104.032+89.642+103.432+90.7087C102.898+91.7754+102.298+92.842+101.632+93.9087C101.432+94.3087+101.232+94.7087+101.032+95.1087C100.898+95.5087+100.698+95.9087+100.432+96.3087C99.8982+97.1754+99.3982+98.042+98.9316+98.9087C98.5316+99.7754+98.0649+100.642+97.5316+101.509C97.3982+101.709+97.2982+101.942+97.2316+102.209C97.1649+102.409+97.0649+102.609+96.9316+102.809C96.5316+103.409+96.1649+104.042+95.8316+104.709C95.5649+105.375+95.1982+106.042+94.7316+106.709C94.3316+107.309+93.9649+107.942+93.6316+108.609C93.3649+109.275+93.0316+109.942+92.6316+110.609C91.4316+112.542+90.3316+114.509+89.3316+116.509C88.3316+118.442+87.2982+120.375+86.2316+122.309C86.0316+122.509+85.8982+122.709+85.8316+122.909C85.8316+123.109+85.7316+123.309+85.5316+123.509C85.0649+124.242+84.6316+125.009+84.2316+125.809C83.8982+126.542+83.4982+127.275+83.0316+128.009C82.7649+128.475+82.4982+128.909+82.2316+129.309C81.9649+129.709+81.6649+130.042+81.3316+130.309C80.9316+130.575+80.5649+130.742+80.2316+130.809C79.8982+130.809+79.4649+130.875+78.9316+131.009L76.6316+131.009C76.1649+131.009+75.5982+131.042+74.9316+131.109C74.3316+131.109+73.6982+131.109+73.0316+131.109C72.4316+131.109+71.8649+131.075+71.3316+131.009C70.7982+130.942+70.4316+130.809+70.2316+130.609C69.7649+130.275+69.4649+129.909+69.3316+129.509C69.2649+129.042+69.1316+128.509+68.9316+127.909C68.7982+127.109+68.6982+126.309+68.6316+125.509C68.5649+124.642+68.4316+123.809+68.2316+123.009L68.1316+122.109C67.9316+121.309+67.7982+120.475+67.7316+119.609C67.6649+118.675+67.5316+117.809+67.3316+117.009C67.3316+116.809+67.3316+116.642+67.3316+116.509C67.3316+116.309+67.2982+116.109+67.2316+115.909C67.0316+115.309+66.8982+114.675+66.8316+114.009C66.7649+113.342+66.6649+112.675+66.5316+112.009C66.5316+111.875+66.5316+111.709+66.5316+111.509C66.5316+111.309+66.4982+111.142+66.4316+111.009C66.2982+110.342+66.1982+109.675+66.1316+109.009C66.1316+108.342+66.0316+107.675+65.8316+107.009C65.5649+105.675+65.3316+104.275+65.1316+102.809C64.9982+101.342+64.7982+99.9087+64.5316+98.5087C64.2649+96.842+64.0316+95.142+63.8316+93.4087C63.6982+91.6754+63.3982+90.0087+62.9316+88.4087C62.7982+87.4754+62.5982+86.7087+62.3316+86.1087C62.1982+85.9754+62.0649+85.8754+61.9316+85.8087C61.8649+85.6754+61.7316+85.6754+61.5316+85.8087C61.1316+86.0087+60.8649+86.342+60.7316+86.8087C60.6649+87.2754+60.5316+87.742+60.3316+88.2087C60.0649+88.6754+59.8982+89.1754+59.8316+89.7087C59.7649+90.1754+59.6982+90.6754+59.6316+91.2087C59.4982+91.942+59.3316+92.6754+59.1316+93.4087C58.9982+94.142+58.8316+94.8754+58.6316+95.6087L53.3316+122.209L52.3316+127.109C52.1982+127.642+52.0649+128.175+51.9316+128.709C51.8649+129.242+51.6649+129.675+51.3316+130.009C50.9982+130.475+50.4316+130.775+49.6316+130.909C49.1649+131.042+48.6649+131.109+48.1316+131.109C47.5982+131.042+47.0649+131.009+46.5316+131.009L41.3316+131.009C40.5982+131.009+39.9316+131.009+39.3316+131.009C38.7316+130.942+38.2649+130.742+37.9316+130.409C37.5982+130.075+37.4649+129.575+37.5316+128.909C37.6649+128.175+37.7982+127.442+37.9316+126.709L39.6316+117.909L47.1316+80.7087L49.9316+66.7087C49.9982+66.3087+50.0649+65.842+50.1316+65.3087C50.2649+64.7087+50.3982+64.142+50.5316+63.6087C50.6649+63.0754+50.7982+62.5754+50.9316+62.1087C51.1316+61.5754+51.2982+61.1754+51.4316+60.9087C51.8316+60.442+52.4316+60.1087+53.2316+59.9087C53.4316+59.842+53.5649+59.842+53.6316+59.9087C53.7649+59.9087+53.9316+59.8754+54.1316+59.8087Z" opacity="1" fill="#fb4f31"/>
<path d="M173.657+127.109C173.657+127.842+173.59+128.575+173.457+129.309C173.323+130.042+172.89+130.542+172.157+130.809C171.69+131.009+171.19+131.109+170.657+131.109C170.123+131.109+169.59+131.109+169.057+131.109L163.657+131.109C163.057+131.109+162.457+131.109+161.857+131.109C161.323+131.042+160.923+130.875+160.657+130.609C160.257+130.342+159.99+129.975+159.857+129.509C159.723+128.975+159.49+128.542+159.157+128.209C159.023+128.075+158.857+127.975+158.657+127.909C158.523+127.775+158.29+127.742+157.957+127.809C157.557+127.942+157.19+128.109+156.857+128.309C156.523+128.509+156.19+128.675+155.857+128.809C155.457+129.075+155.023+129.309+154.557+129.509C154.157+129.709+153.723+129.909+153.257+130.109C152.323+130.509+151.357+130.842+150.357+131.109C149.357+131.309+148.357+131.542+147.357+131.809C146.823+131.942+146.323+132.009+145.857+132.009C145.457+132.075+145.023+132.142+144.557+132.209C144.357+132.209+144.157+132.209+143.957+132.209C143.757+132.275+143.557+132.309+143.357+132.309L142.257+132.309C141.523+132.442+140.857+132.442+140.257+132.309L139.357+132.309C138.89+132.175+138.423+132.109+137.957+132.109C137.557+132.175+137.157+132.142+136.757+132.009C136.157+131.875+135.557+131.742+134.957+131.609C134.357+131.542+133.823+131.375+133.357+131.109C131.557+130.375+130.09+129.442+128.957+128.309C127.823+127.109+127.057+125.542+126.657+123.609C126.523+123.142+126.423+122.642+126.357+122.109C126.357+121.575+126.323+121.009+126.257+120.409C126.19+120.075+126.19+119.742+126.257+119.409C126.39+119.075+126.457+118.742+126.457+118.409C126.457+118.209+126.49+117.809+126.557+117.209C126.69+116.542+126.823+116.075+126.957+115.809C127.223+115.142+127.39+114.575+127.457+114.109C127.79+113.375+128.123+112.642+128.457+111.909C128.857+111.109+129.29+110.409+129.757+109.809C131.223+107.875+132.79+106.409+134.457+105.409C136.123+104.409+138.19+103.542+140.657+102.809C141.59+102.475+142.523+102.242+143.457+102.109C144.39+101.975+145.357+101.809+146.357+101.609C146.89+101.475+147.457+101.409+148.057+101.409C148.723+101.342+149.357+101.242+149.957+101.109C150.423+100.975+150.89+100.942+151.357+101.009C151.823+101.009+152.357+100.942+152.957+100.809C153.423+100.675+153.89+100.609+154.357+100.609C154.823+100.609+155.323+100.542+155.857+100.409C157.323+100.075+158.657+99.8087+159.857+99.6087C161.123+99.342+162.323+98.742+163.457+97.8087C164.123+97.2087+164.657+96.542+165.057+95.8087C165.123+95.6087+165.157+95.442+165.157+95.3087C165.157+95.1754+165.19+95.042+165.257+94.9087C165.39+94.7754+165.457+94.5754+165.457+94.3087C165.523+94.042+165.59+93.842+165.657+93.7087C165.657+93.442+165.657+93.1754+165.657+92.9087C165.657+92.642+165.657+92.4087+165.657+92.2087C165.39+90.2087+164.257+88.842+162.257+88.1087C161.723+87.9087+161.023+87.7754+160.157+87.7087C159.357+87.5754+158.523+87.542+157.657+87.6087C156.79+87.6087+155.923+87.6754+155.057+87.8087C154.257+87.942+153.557+88.1087+152.957+88.3087C152.49+88.442+152.057+88.642+151.657+88.9087C151.257+89.1087+150.857+89.342+150.457+89.6087C150.057+89.8754+149.623+90.242+149.157+90.7087C148.69+91.1754+148.357+91.6087+148.157+92.0087C147.69+92.6754+147.29+93.3087+146.957+93.9087C146.623+94.5087+146.057+94.9087+145.257+95.1087C144.723+95.242+144.157+95.3087+143.557+95.3087C142.957+95.3087+142.357+95.3087+141.757+95.3087L137.957+95.3087C137.623+95.3087+137.257+95.342+136.857+95.4087C136.523+95.4087+136.257+95.3754+136.057+95.3087L135.157+95.3087C135.023+95.242+134.857+95.2087+134.657+95.2087C134.457+95.2087+134.29+95.142+134.157+95.0087C133.69+94.8754+133.423+94.442+133.357+93.7087C133.357+93.3754+133.423+93.042+133.557+92.7087C133.69+92.3754+133.823+92.0754+133.957+91.8087C134.29+91.0754+134.623+90.4087+134.957+89.8087C135.357+89.142+135.757+88.542+136.157+88.0087C136.423+87.6754+136.69+87.342+136.957+87.0087C137.223+86.6754+137.49+86.342+137.757+86.0087C138.423+85.2754+139.223+84.5754+140.157+83.9087C140.357+83.842+140.59+83.6754+140.857+83.4087C141.257+83.142+141.59+82.9087+141.857+82.7087C142.19+82.5087+142.557+82.3087+142.957+82.1087C144.223+81.3754+145.523+80.8087+146.857+80.4087C148.257+79.942+149.657+79.5087+151.057+79.1087C151.923+78.9087+152.79+78.7754+153.657+78.7087C154.523+78.642+155.423+78.5087+156.357+78.3087C156.623+78.242+157.023+78.242+157.557+78.3087C158.09+78.3754+158.457+78.342+158.657+78.2087C161.39+78.142+163.957+78.242+166.357+78.5087C168.823+78.7754+170.99+79.2754+172.857+80.0087C174.79+80.742+176.357+81.742+177.557+83.0087C178.823+84.2087+179.657+85.7754+180.057+87.7087C180.257+88.842+180.257+90.142+180.057+91.6087C179.857+93.0754+179.59+94.5754+179.257+96.1087L174.757+118.409C174.557+119.675+174.323+120.975+174.057+122.309C173.79+123.575+173.69+124.742+173.757+125.809C173.757+126.009+173.723+126.242+173.657+126.509C173.657+126.709+173.657+126.909+173.657+127.109ZM162.057+111.709C162.19+111.375+162.29+111.009+162.357+110.609C162.423+110.142+162.457+109.742+162.457+109.409C162.457+109.009+162.49+108.642+162.557+108.309C162.623+107.975+162.523+107.709+162.257+107.509C161.99+107.242+161.523+107.109+160.857+107.109C160.59+107.175+160.357+107.242+160.157+107.309C159.957+107.309+159.69+107.342+159.357+107.409C158.89+107.542+158.39+107.642+157.857+107.709C157.323+107.775+156.757+107.875+156.157+108.009C155.957+108.075+155.657+108.109+155.257+108.109C154.323+108.309+153.423+108.442+152.557+108.509C151.69+108.575+150.823+108.742+149.957+109.009C149.423+109.142+148.89+109.275+148.357+109.409C147.89+109.475+147.423+109.609+146.957+109.809C145.423+110.409+144.057+111.309+142.857+112.509C141.657+113.709+140.957+115.375+140.757+117.509C140.69+118.642+140.89+119.575+141.357+120.309C141.623+121.042+142.19+121.642+143.057+122.109C143.923+122.509+144.89+122.809+145.957+123.009C147.023+123.209+148.157+123.275+149.357+123.209C150.623+123.075+151.823+122.842+152.957+122.509C154.823+121.975+156.357+121.142+157.557+120.009C158.823+118.809+159.89+117.342+160.757+115.609C160.957+115.142+161.123+114.675+161.257+114.209C161.39+113.675+161.59+113.142+161.857+112.609C161.857+112.609+162.057+111.709+162.057+111.709Z" opacity="1" fill="#fb4f31"/>
<path d="M289.632+104.809C289.632+105.342+289.498+105.942+289.232+106.609C288.965+107.275+288.632+107.709+288.232+107.909C287.898+108.175+287.398+108.375+286.732+108.509C286.065+108.575+285.332+108.642+284.532+108.709C283.798+108.709+283.032+108.709+282.232+108.709C281.498+108.642+280.832+108.609+280.232+108.609L255.832+108.609C255.365+108.609+254.898+108.609+254.432+108.609C254.032+108.609+253.665+108.675+253.332+108.809C252.732+109.075+252.332+109.342+252.132+109.609C251.998+109.742+251.798+110.009+251.532+110.409C251.332+110.742+251.232+111.075+251.232+111.409C251.298+111.809+251.298+112.209+251.232+112.609C251.232+112.942+251.265+113.309+251.332+113.709C251.532+115.309+251.898+116.642+252.432+117.709C253.032+118.709+253.898+119.609+255.032+120.409C255.498+120.742+255.998+120.975+256.532+121.109C257.132+121.175+257.698+121.309+258.232+121.509C258.765+121.642+259.465+121.742+260.332+121.809C261.265+121.875+262.098+121.842+262.832+121.709L263.732+121.709C264.398+121.575+265.032+121.442+265.632+121.309C266.232+121.109+266.832+120.909+267.432+120.709C268.165+120.375+268.998+119.942+269.932+119.409C270.865+118.875+271.598+118.342+272.132+117.809C272.532+117.342+272.965+116.909+273.432+116.509C273.898+116.042+274.398+115.709+274.932+115.509C275.665+115.175+276.532+115.042+277.532+115.109C278.598+115.109+279.565+115.109+280.432+115.109C280.832+115.109+281.232+115.109+281.632+115.109C282.098+115.042+282.498+115.075+282.832+115.209L283.832+115.209C284.432+115.342+284.865+115.509+285.132+115.709C285.332+115.842+285.398+116.142+285.332+116.609C285.332+117.075+285.232+117.475+285.032+117.809C284.498+118.742+283.932+119.575+283.332+120.309C282.798+121.042+282.198+121.775+281.532+122.509C279.665+124.709+277.665+126.475+275.532+127.809C273.398+129.142+270.832+130.275+267.832+131.209C267.032+131.475+266.265+131.642+265.532+131.709C264.798+131.775+263.998+131.909+263.132+132.109C262.865+132.175+262.565+132.175+262.232+132.109C261.965+132.109+261.698+132.142+261.432+132.209L260.332+132.209C259.932+132.342+259.532+132.375+259.132+132.309C258.732+132.309+258.365+132.275+258.032+132.209C257.498+132.142+257.032+132.142+256.632+132.209C256.232+132.275+255.798+132.242+255.332+132.109C254.998+131.975+254.632+131.909+254.232+131.909C253.832+131.909+253.498+131.842+253.232+131.709C252.498+131.575+251.765+131.409+251.032+131.209C250.365+131.075+249.765+130.842+249.232+130.509C248.565+130.242+247.932+130.009+247.332+129.809C246.732+129.542+246.198+129.242+245.732+128.909C243.865+127.575+242.265+126.042+240.932+124.309C239.665+122.509+238.732+120.442+238.132+118.109C237.932+117.375+237.798+116.642+237.732+115.909C237.732+115.109+237.632+114.309+237.432+113.509C237.432+113.242+237.432+113.009+237.432+112.809C237.498+112.542+237.532+112.275+237.532+112.009C237.465+111.209+237.465+110.342+237.532+109.409C237.665+108.475+237.798+107.542+237.932+106.609C237.998+106.275+238.032+105.909+238.032+105.509C238.098+105.109+238.198+104.742+238.332+104.409L238.632+103.209L239.432+100.809C239.898+99.6754+240.332+98.5754+240.732+97.5087C241.132+96.442+241.632+95.442+242.232+94.5087C246.498+87.5754+252.365+82.6754+259.832+79.8087C260.832+79.4087+261.832+79.142+262.832+79.0087C263.832+78.8087+264.898+78.5754+266.032+78.3087C266.565+78.242+267.065+78.2087+267.532+78.2087C267.998+78.2087+268.498+78.1754+269.032+78.1087C272.432+78.042+275.265+78.442+277.532+79.3087C279.798+80.1087+281.765+81.1754+283.432+82.5087C283.965+82.9087+284.465+83.3754+284.932+83.9087C285.465+84.3754+285.898+84.8754+286.232+85.4087C286.365+85.742+286.598+86.0087+286.932+86.2087C287.332+86.942+287.665+87.7087+287.932+88.5087C288.265+89.242+288.632+90.0087+289.032+90.8087C289.232+91.4087+289.365+92.042+289.432+92.7087C289.565+93.3087+289.698+93.9754+289.832+94.7087C289.965+95.5754+290.032+96.4754+290.032+97.4087C290.098+98.342+290.165+99.2754+290.232+100.209C290.232+100.742+290.132+101.342+289.932+102.009C289.798+102.609+289.765+103.175+289.832+103.709C289.832+103.709+289.632+104.809+289.632+104.809ZM275.732+98.9087C276.332+98.242+276.532+97.442+276.332+96.5087C276.198+95.5087+276.098+94.7754+276.032+94.3087C275.432+92.5087+274.465+91.142+273.132+90.2087C271.798+89.2087+269.765+88.6754+267.032+88.6087C266.832+88.742+266.598+88.7754+266.332+88.7087C266.065+88.642+265.832+88.642+265.632+88.7087C265.232+88.842+264.832+88.942+264.432+89.0087C264.032+89.0087+263.665+89.0754+263.332+89.2087C260.198+90.142+257.665+91.9754+255.732+94.7087C255.532+94.9754+255.298+95.342+255.032+95.8087C254.765+96.2087+254.565+96.642+254.432+97.1087C254.298+97.5087+254.232+97.9087+254.232+98.3087C254.232+98.7087+254.398+99.042+254.732+99.3087C255.198+99.642+255.898+99.8087+256.832+99.8087C257.765+99.8087+258.665+99.8087+259.532+99.8087L270.632+99.8087C271.565+99.8087+272.532+99.8087+273.532+99.8087C274.598+99.742+275.332+99.442+275.732+98.9087Z" opacity="1" fill="#fb4f31"/>
<path d="M332.753+78.2087C336.753+78.0754+339.953+78.642+342.353+79.9087C344.82+81.1754+346.553+83.042+347.553+85.5087C347.887+86.242+348.087+87.042+348.153+87.9087C348.287+88.7087+348.387+89.542+348.453+90.4087C348.52+90.942+348.52+91.442+348.453+91.9087C348.387+92.3754+348.387+92.842+348.453+93.3087C348.32+93.7087+348.287+93.9754+348.353+94.1087C348.287+95.042+348.153+96.0087+347.953+97.0087C347.753+98.0087+347.553+98.9754+347.353+99.9087L345.653+108.809L342.353+125.009C342.087+126.275+341.82+127.509+341.553+128.709C341.287+129.842+340.653+130.575+339.653+130.909C339.253+131.042+338.787+131.109+338.253+131.109C337.72+131.109+337.187+131.109+336.653+131.109L331.253+131.109C330.453+131.109+329.753+131.075+329.153+131.009C328.553+130.875+328.12+130.575+327.853+130.109C327.653+129.709+327.587+129.209+327.653+128.609C327.787+127.942+327.92+127.242+328.053+126.509L329.453+119.509L332.453+104.609C332.92+102.142+333.253+99.8754+333.453+97.8087C333.72+95.6754+333.487+93.8754+332.753+92.4087C332.087+91.0754+330.92+90.142+329.253+89.6087C328.92+89.4754+328.553+89.4087+328.153+89.4087C327.82+89.4087+327.487+89.342+327.153+89.2087C326.82+89.142+326.387+89.142+325.853+89.2087C325.387+89.2087+325.02+89.242+324.753+89.3087C324.42+89.3754+324.153+89.4087+323.953+89.4087C323.753+89.4087+323.553+89.442+323.353+89.5087C321.753+89.9087+320.42+90.442+319.353+91.1087C316.887+92.642+315.153+94.8754+314.153+97.8087C313.22+100.742+312.387+104.042+311.653+107.709L309.153+120.209L307.953+126.309C307.82+126.909+307.687+127.509+307.553+128.109C307.42+128.709+307.22+129.209+306.953+129.609C306.487+130.342+305.853+130.775+305.053+130.909C304.32+131.042+303.42+131.109+302.353+131.109L297.353+131.109C296.62+131.109+295.887+131.075+295.153+131.009C294.42+130.942+293.953+130.709+293.753+130.309C293.353+129.709+293.287+128.842+293.553+127.709C293.82+126.575+294.053+125.509+294.253+124.509L296.953+110.909L301.353+88.9087L302.453+83.8087C302.587+83.0754+302.72+82.4087+302.853+81.8087C302.987+81.2087+303.287+80.7087+303.753+80.3087C303.887+80.1087+304.12+79.9754+304.453+79.9087C304.787+79.7754+305.12+79.6754+305.453+79.6087L305.953+79.6087C306.287+79.542+306.62+79.5087+306.953+79.5087C307.353+79.5087+307.72+79.5087+308.053+79.5087L312.253+79.5087C312.787+79.5087+313.287+79.542+313.753+79.6087C314.287+79.6087+314.753+79.6754+315.153+79.8087C315.553+80.0087+315.787+80.3087+315.853+80.7087C315.987+81.1087+316.053+81.5754+316.053+82.1087C316.053+82.3754+316.02+82.6087+315.953+82.8087C315.887+83.0087+315.887+83.2087+315.953+83.4087C316.02+83.742+316.087+83.942+316.153+84.0087C316.287+84.0754+316.453+84.1754+316.653+84.3087C317.32+84.3754+317.953+84.142+318.553+83.6087C319.153+83.0087+319.753+82.542+320.353+82.2087C322.42+80.8754+324.62+79.8087+326.953+79.0087C327.62+78.8087+328.253+78.6754+328.853+78.6087C329.52+78.542+330.253+78.442+331.053+78.3087C331.253+78.242+331.553+78.242+331.953+78.3087C332.353+78.3087+332.62+78.2754+332.753+78.2087Z" opacity="1" fill="#fb4f31"/>
<path d="M357.515+78.1301C357.582+78.1834+357.615+78.2968+357.615+78.4701C357.615+78.6434+357.582+78.8034+357.515+78.9501L357.495+79.1101C357.442+79.2301+357.382+79.3301+357.315+79.4101C357.262+79.4768+357.175+79.5301+357.055+79.5701C356.935+79.5968+356.768+79.6101+356.555+79.6101C356.342+79.5968+356.162+79.5901+356.015+79.5901L355.715+79.5901C355.648+79.6168+355.588+79.6234+355.535+79.6101C355.482+79.5968+355.428+79.6034+355.375+79.6301C355.228+79.6834+355.102+79.8101+354.995+80.0101C354.955+80.0768+354.928+80.1568+354.915+80.2501C354.902+80.3434+354.888+80.4368+354.875+80.5301L353.915+85.2501C353.902+85.3168+353.895+85.3768+353.895+85.4301C353.895+85.4834+353.882+85.5368+353.855+85.5901L353.815+85.7501C353.802+85.7901+353.788+85.8301+353.775+85.8701C353.775+85.9101+353.755+85.9434+353.715+85.9701C353.662+86.0768+353.575+86.1501+353.455+86.1901C353.388+86.2168+353.308+86.2301+353.215+86.2301C353.135+86.2301+353.042+86.2301+352.935+86.2301C352.748+86.2301+352.542+86.2301+352.315+86.2301C352.088+86.2301+351.935+86.1768+351.855+86.0701C351.815+85.9901+351.802+85.8968+351.815+85.7901C351.842+85.6834+351.868+85.5634+351.895+85.4301L352.835+80.7101C352.848+80.6434+352.862+80.5768+352.875+80.5101C352.902+80.4434+352.908+80.3834+352.895+80.3301L352.935+80.0501C352.948+79.8368+352.882+79.7034+352.735+79.6501C352.615+79.5834+352.435+79.5568+352.195+79.5701C351.968+79.5834+351.768+79.5901+351.595+79.5901C351.528+79.5901+351.462+79.5968+351.395+79.6101C351.342+79.6101+351.295+79.6034+351.255+79.5901C351.202+79.5634+351.155+79.5568+351.115+79.5701C351.075+79.5701+351.035+79.5634+350.995+79.5501C350.862+79.4834+350.802+79.3768+350.815+79.2301C350.828+79.0834+350.855+78.9101+350.895+78.7101C350.908+78.6301+350.922+78.5568+350.935+78.4901C350.962+78.4234+350.995+78.3568+351.035+78.2901C351.075+78.2234+351.128+78.1768+351.195+78.1501C351.262+78.1101+351.328+78.0768+351.395+78.0501C351.435+78.0368+351.462+78.0368+351.475+78.0501C351.502+78.0501+351.535+78.0434+351.575+78.0301L356.915+78.0301C357.035+78.0301+357.148+78.0368+357.255+78.0501C357.362+78.0501+357.448+78.0768+357.515+78.1301ZM368.155+78.1701C368.208+78.2634+368.222+78.3701+368.195+78.4901C368.182+78.6101+368.162+78.7434+368.135+78.8901L366.835+85.3901C366.808+85.5368+366.775+85.6701+366.735+85.7901C366.708+85.8968+366.662+85.9901+366.595+86.0701C366.502+86.1768+366.355+86.2301+366.155+86.2301C365.968+86.2301+365.782+86.2301+365.595+86.2301C365.515+86.2301+365.428+86.2368+365.335+86.2501C365.255+86.2501+365.188+86.2368+365.135+86.2101C365.015+86.1701+364.942+86.1101+364.915+86.0301C364.902+85.9501+364.895+85.8501+364.895+85.7301L364.955+85.3901C364.955+85.3501+364.962+85.3034+364.975+85.2501C364.988+85.1834+365.002+85.1234+365.015+85.0701L365.535+82.5301C365.562+82.3701+365.588+82.2101+365.615+82.0501C365.655+81.8901+365.675+81.7434+365.675+81.6101C365.662+81.5434+365.655+81.4901+365.655+81.4501C365.655+81.3968+365.635+81.3568+365.595+81.3301C365.582+81.3168+365.562+81.3101+365.535+81.3101C365.495+81.3368+365.448+81.3634+365.395+81.3901C365.262+81.5501+365.142+81.7301+365.035+81.9301C364.928+82.1301+364.815+82.3234+364.695+82.5101C364.455+82.9234+364.222+83.3434+363.995+83.7701C363.768+84.1834+363.535+84.5901+363.295+84.9901C363.188+85.1768+363.075+85.3901+362.955+85.6301C362.835+85.8568+362.695+86.0234+362.535+86.1301C362.455+86.1834+362.362+86.2168+362.255+86.2301C362.148+86.2301+362.035+86.2301+361.915+86.2301L361.615+86.2301C361.548+86.2034+361.488+86.1834+361.435+86.1701C361.382+86.1434+361.335+86.1101+361.295+86.0701C361.255+86.0301+361.228+85.9768+361.215+85.9101C361.202+85.8434+361.188+85.7768+361.175+85.7101C361.135+85.5901+361.108+85.4701+361.095+85.3501C361.082+85.2168+361.062+85.0834+361.035+84.9501C360.955+84.5634+360.888+84.1701+360.835+83.7701C360.782+83.3568+360.715+82.9568+360.635+82.5701C360.595+82.3434+360.555+82.1168+360.515+81.8901C360.488+81.6634+360.415+81.4701+360.295+81.3101C360.268+81.3101+360.248+81.3168+360.235+81.3301C360.222+81.3301+360.208+81.3301+360.195+81.3301C360.128+81.3834+360.082+81.4434+360.055+81.5101C360.015+81.5768+359.988+81.6434+359.975+81.7101C359.975+81.7634+359.962+81.8234+359.935+81.8901L359.875+82.2301C359.848+82.2834+359.828+82.3368+359.815+82.3901C359.802+82.4434+359.795+82.4901+359.795+82.5301L359.315+84.8501C359.288+85.0234+359.248+85.2368+359.195+85.4901C359.155+85.7301+359.095+85.9034+359.015+86.0101C358.975+86.0368+358.935+86.0701+358.895+86.1101C358.868+86.1368+358.835+86.1568+358.795+86.1701C358.728+86.1968+358.648+86.2168+358.555+86.2301C358.475+86.2301+358.382+86.2301+358.275+86.2301C358.102+86.2301+357.928+86.2301+357.755+86.2301C357.582+86.2301+357.448+86.1901+357.355+86.1101C357.288+86.0568+357.255+85.9701+357.255+85.8501C357.268+85.7301+357.288+85.5968+357.315+85.4501L358.635+78.8501C358.662+78.7301+358.688+78.6168+358.715+78.5101C358.755+78.3901+358.802+78.2968+358.855+78.2301C358.922+78.1368+359.028+78.0768+359.175+78.0501C359.215+78.0368+359.242+78.0368+359.255+78.0501C359.282+78.0501+359.315+78.0434+359.355+78.0301L360.675+78.0301C360.822+78.0301+360.962+78.0301+361.095+78.0301C361.228+78.0301+361.328+78.0634+361.395+78.1301C361.502+78.2101+361.562+78.3368+361.575+78.5101C361.602+78.6834+361.635+78.8434+361.675+78.9901C361.742+79.3634+361.808+79.7434+361.875+80.1301C361.942+80.5034+362.008+80.8834+362.075+81.2701C362.128+81.4701+362.168+81.6768+362.195+81.8901C362.235+82.1034+362.275+82.3101+362.315+82.5101C362.342+82.5901+362.362+82.6768+362.375+82.7701C362.402+82.8501+362.455+82.9034+362.535+82.9301C362.602+82.9568+362.662+82.9434+362.715+82.8901C362.782+82.8368+362.828+82.7901+362.855+82.7501C362.988+82.6034+363.095+82.4501+363.175+82.2901C363.268+82.1168+363.362+81.9501+363.455+81.7901C363.735+81.3501+363.995+80.9034+364.235+80.4501C364.488+79.9834+364.755+79.5301+365.035+79.0901C365.142+78.9034+365.248+78.7101+365.355+78.5101C365.475+78.2968+365.635+78.1501+365.835+78.0701C365.928+78.0434+366.022+78.0301+366.115+78.0301C366.222+78.0301+366.328+78.0301+366.435+78.0301L367.315+78.0301C367.395+78.0301+367.475+78.0301+367.555+78.0301C367.635+78.0168+367.708+78.0168+367.775+78.0301L367.875+78.0301C367.928+78.0568+367.982+78.0768+368.035+78.0901C368.102+78.1034+368.142+78.1301+368.155+78.1701Z" opacity="1" fill="#fb4f31"/>
<g opacity="1">
<g opacity="1">
<path d="M190.241+76.5907C189.789+77.6582+189.433+79.9793+189.27+83.0851L192.761+84.7747C192.704+82.5513+192.787+80.46+193.011+78.5598C193.024+78.4176+193.037+78.3347+193.037+78.3347C193.033+78.4106+193.014+78.4839+193.011+78.5598C192.94+79.1853+192.792+81.1479+192.994+84.6917C194.439+83.5134+196.519+81.5163+198.164+79.8087C196.427+76.2586+194.265+75.6384+194.265+75.6384C194.265+75.6384+191.173+74.3918+190.241+76.5907Z" opacity="1" fill="url(#LinearGradient)"/>
<path d="M199.32+94.1723C199.33+94.1653+199.339+94.1583+199.342+94.1417L199.146+94.3152C199.143+94.3318+199.124+94.3458+199.121+94.3624C199.191+94.2967+199.26+94.231+199.32+94.1723Z" opacity="1" fill="url(#LinearGradient_2)"/>
<path d="M201.457+100.21C201.363+100.323+201.253+100.434+201.142+100.544C201.253+100.434+201.363+100.323+201.457+100.21Z" opacity="1" fill="url(#LinearGradient_3)"/>
<path d="M199.45+118.764C199.441+118.711+199.415+118.656+199.406+118.604C199.107+117.515+198.819+116.461+198.538+115.416C198.232+114.258+197.94+113.119+197.66+112.015C197.371+110.859+197.095+109.723+196.839+108.631C196.566+107.478+196.312+106.37+196.079+105.29C195.891+104.413+195.707+103.562+195.538+102.73C195.479+102.449+195.428+102.178+195.376+101.907C195.272+101.366+195.166+100.84+195.067+100.324C194.98+99.8443+194.89+99.3808+194.8+98.9173C194.773+98.7605+194.746+98.6036+194.716+98.4633C194.712+98.4372+194.707+98.4111+194.703+98.3849L194.535+98.5374L194.188+98.3654C194.2+98.4011+194.202+98.4438+194.213+98.4795C194.327+99.1757+194.448+99.8815+194.585+100.59C194.659+100.991+194.741+101.403+194.812+101.821C195.028+102.957+195.254+104.086+195.503+105.227C195.742+106.376+195.998+107.526+196.257+108.661C196.509+109.785+196.78+110.896+197.05+112.007C197.321+113.117+197.594+114.211+197.877+115.298C198.169+116.437+198.464+117.56+198.77+118.659C198.834+118.907+198.905+119.164+198.978+119.404C199.223+120.298+199.463+121.167+199.713+122.028L200.272+122.309L200.459+122.142C200.454+122.116+200.45+122.09+200.436+122.071C200.065+120.945+199.752+119.837+199.45+118.764Z" opacity="1" fill="url(#LinearGradient_4)"/>
<path d="" opacity="1" fill="url(#LinearGradient_5)"/>
<path d="M202.342+103.401C202.178+103.579+202.008+103.748+201.838+103.917L201.838+103.917C201.927+103.837+202.018+103.741+202.099+103.652C202.188+103.572+202.27+103.483+202.342+103.401Z" opacity="1" fill="url(#LinearGradient_6)"/>
<path d="M202.342+103.401C202.178+103.579+202.008+103.748+201.838+103.917L201.838+103.917C201.927+103.837+202.018+103.741+202.099+103.652C202.188+103.572+202.27+103.483+202.342+103.401Z" opacity="0.35" fill="url(#LinearGradient_7)"/>
<path d="M201.063+100.617L201.063+100.617C201.054+100.624+201.054+100.624+201.063+100.617C201.092+100.596+201.114+100.565+201.142+100.544C201.253+100.434+201.363+100.323+201.457+100.21C201.334+100.344+201.195+100.476+201.063+100.617L201.063+100.617C201.063+100.617+201.063+100.617+201.063+100.617Z" opacity="1" fill="url(#LinearGradient_8)"/>
<path d="M201.063+100.617L201.063+100.617C201.054+100.624+201.054+100.624+201.063+100.617C201.092+100.596+201.114+100.565+201.142+100.544C201.253+100.434+201.363+100.323+201.457+100.21C201.334+100.344+201.195+100.476+201.063+100.617L201.063+100.617C201.063+100.617+201.063+100.617+201.063+100.617Z" opacity="0.35" fill="url(#LinearGradient_9)"/>
<path d="M193.675+95.0793C193.513+93.9177+193.366+92.7751+193.233+91.6517C193.098+90.4856+192.994+89.3411+192.913+88.2088C192.907+88.1399+192.9+88.071+192.901+88.0117C192.825+86.9055+192.769+85.828+192.745+84.7721L189.261+83.0921C189.254+83.3032+189.237+83.5213+189.228+83.7489C189.193+84.5835+189.167+85.4705+189.16+86.4026C189.151+87.4534+189.161+88.5495+189.18+89.6978C189.205+90.7537+189.248+91.8548+189.305+92.9751C189.362+93.934+189.425+94.9025+189.503+95.8901C189.505+95.9328+189.509+95.959+189.511+96.0017L194.172+98.3628C194.01+97.2605+193.839+96.1651+193.675+95.0793Z" opacity="1" fill="url(#LinearGradient_10)"/>
<path d="M200.56+122.642C200.817+123.513+201.078+124.41+201.363+125.319C201.37+125.328+201.367+125.345+201.374+125.354C201.413+125.488+201.445+125.611+201.494+125.738C201.679+126.351+201.859+126.897+202.244+128.144C202.998+127.988+203.939+128.327+204.921+128.783C204.29+128.025+203.418+127.518+202.375+127.4C205.23+125.496+207.108+123.044+206.844+120.119C206.816+119.86+206.781+119.591+206.729+119.32C206.684+120.442+206.22+121.253+204.854+122.138L204.845+122.145L204.854+122.138C206.145+119.867+206.5+118.327+206.347+116.335C206.309+115.862+206.25+115.361+206.164+114.822C205.751+117.787+204.158+119.707+201.829+120.842L200.416+122.144C200.466+122.313+200.51+122.473+200.56+122.642Z" opacity="1" fill="url(#LinearGradient_11)"/>
<path d="M198.744+118.664C198.447+117.558+198.153+116.435+197.851+115.303C197.568+114.216+197.295+113.122+197.024+112.011C196.753+110.9+196.492+109.783+196.231+108.665C195.965+107.521+195.716+106.38+195.477+105.232C195.235+104.1+195.012+102.955+194.786+101.825C194.705+101.414+194.631+101.013+194.559+100.594C194.429+99.8955+194.308+99.1897+194.187+98.484C194.176+98.4483+194.174+98.4055+194.162+98.3698L189.528+96.0042C189.534+96.0731+189.548+96.1515+189.545+96.2274C189.638+97.2769+189.729+98.3429+189.853+99.414C189.975+100.502+190.113+101.592+190.275+102.694C190.412+103.623+190.559+104.545+190.713+105.477C190.744+105.66+190.783+105.852+190.814+106.035C191.028+107.188+191.256+108.3+191.503+109.34C191.781+110.519+192.078+111.625+192.378+112.656C192.579+113.331+192.777+113.981+192.979+114.597C193.154+115.116+193.345+115.638+193.53+116.15C193.973+117.355+194.464+118.525+194.993+119.666L199.677+122.04C199.427+121.178+199.197+120.303+198.943+119.415C198.879+119.168+198.815+118.921+198.744+118.664Z" opacity="1" fill="url(#LinearGradient_12)"/>
<path d="M195.062+119.821C195.707+121.201+196.42+122.532+197.218+123.8C197.246+123.839+197.271+123.893+197.299+123.932C196.005+123.411+193.711+123.652+193.727+123.655C196.096+124.477+198.173+125.483+199.483+127.007C198.962+127.581+197.988+128.016+196.762+128.371C198.457+128.555+199.401+128.259+199.747+128.108C198.862+128.846+198.366+130.196+197.931+131.648C198.928+130.019+199.916+128.94+200.879+128.528C202.285+133.19+203.978+138.243+205.854+143.545C206.172+143.136+206.207+142.683+206.074+142.222C205.728+141.269+203.497+134.962+200.951+126.401C200.877+126.161+200.813+125.913+200.733+125.663C200.71+125.592+200.694+125.53+200.671+125.459C200.41+124.562+200.144+123.638+199.874+122.689C199.815+122.468+199.753+122.263+199.693+122.042L199.686+122.032L195.002+119.659C195.018+119.721+195.037+119.766+195.062+119.821Z" opacity="1" fill="url(#LinearGradient_13)"/>
<path d="M194.716+98.4633C194.743+98.6202+194.773+98.7605+194.799+98.9173C194.89+99.3808+194.97+99.8513+195.067+100.324C195.166+100.84+195.272+101.366+195.376+101.907C195.428+102.178+195.479+102.449+195.538+102.73C195.707+103.562+195.891+104.413+196.079+105.29C196.312+106.37+196.566+107.478+196.839+108.631C197.095+109.723+197.371+110.859+197.66+112.015C197.94+113.119+198.225+114.249+198.538+115.416C198.812+116.451+199.107+117.515+199.406+118.604C199.415+118.656+199.441+118.711+199.45+118.764C199.752+119.837+200.065+120.945+200.393+122.073C200.397+122.099+200.402+122.125+200.416+122.144L201.829+120.842C201.793+120.854+201.765+120.875+201.719+120.894C203.396+119.31+204.833+116.136+205.162+113.277C205.313+111.959+205.299+110.557+205.118+109.028C204.988+107.888+204.756+106.69+204.437+105.393C204.159+104.273+203.816+103.084+203.397+101.832C203.138+102.36+202.769+102.881+202.318+103.388C202.236+103.478+202.155+103.567+202.073+103.656C201.992+103.746+201.903+103.825+201.812+103.922L201.812+103.922L201.812+103.922L201.812+103.922C203.049+101.999+203.196+99.9341+202.829+97.7906C202.604+98.4264+202.163+99.3683+201.431+100.215C201.337+100.328+201.227+100.438+201.116+100.548C201.088+100.569+201.066+100.6+201.028+100.628L201.028+100.628L201.028+100.628L201.028+100.628L201.028+100.628L201.028+100.628C201.438+99.9444+201.741+99.2952+201.936+98.6377C201.982+98.5006+202.012+98.361+202.042+98.2213C202.091+98.0083+202.125+97.7928+202.158+97.5773C202.171+97.4351+202.191+97.3025+202.205+97.1603C202.229+96.8332+202.231+96.494+202.198+96.1497C202.19+96.0381+202.189+95.9361+202.171+95.8315C202.144+95.6747+202.124+95.5274+202.095+95.3871C201.983+94.7336+201.858+94.163+201.731+93.6683C201.667+93.4209+201.608+93.1997+201.546+92.995C201.516+92.9141+201.502+92.8357+201.472+92.7547C201.396+92.5309+201.334+92.3263+201.267+92.1548C201.17+91.9023+201.082+91.7022+201.01+91.5638L201.01+91.5638L201.01+91.5638C200.988+91.6537+200.956+91.7507+200.908+91.8451C200.616+92.53+199.937+93.4694+199.318+94.1296L200.621+92.938L199.318+94.1296C199.309+94.1366+199.299+94.1436+199.297+94.1602C199.237+94.2189+199.167+94.2846+199.105+94.3599C199.107+94.3433+199.126+94.3292+199.129+94.3127L194.677+98.3894C194.714+98.4206+194.719+98.4468+194.716+98.4633Z" opacity="1" fill="url(#LinearGradient_14)"/>
<path d="M192.994+84.6917C193.048+85.6672+193.134+86.7664+193.245+87.9797C193.252+88.0486+193.251+88.1079+193.267+88.1697C193.367+89.2288+193.498+90.3688+193.663+91.6158C193.804+92.6895+193.96+93.825+194.154+95.0511C194.314+96.1107+194.509+97.2182+194.71+98.3945L199.162+94.3178C200.09+92.636+200.293+91.5896+200.281+90.2895C200.275+89.9408+200.255+89.5729+200.228+89.1954C200.157+88.056+200.02+86.8472+199.826+85.6804C199.643+84.5494+199.419+83.463+199.163+82.5328C199.001+81.931+198.829+81.3955+198.653+80.9358C198.493+80.538+198.329+80.1734+198.162+79.8253C196.519+81.5163+194.439+83.5134+192.994+84.6917Z" opacity="1" fill="url(#LinearGradient_15)"/>
<path d="M202.106+103.661C202.025+103.751+201.936+103.83+201.845+103.927L201.845+103.927C201.927+103.837+202.008+103.748+202.106+103.661Z" opacity="1" fill="url(#LinearGradient_16)"/>
<path d="M202.106+103.661C202.025+103.751+201.936+103.83+201.845+103.927L201.845+103.927C201.927+103.837+202.008+103.748+202.106+103.661Z" opacity="0.35" fill="url(#LinearGradient_17)"/>
<path d="M202.106+103.661C202.025+103.751+201.936+103.83+201.845+103.927L201.845+103.927C201.927+103.837+202.008+103.748+202.106+103.661Z" opacity="1" fill="url(#LinearGradient_18)"/>
<path d="M201.054+100.624C201.083+100.603+201.104+100.572+201.142+100.544C201.114+100.565+201.092+100.596+201.054+100.624L201.054+100.624Z" opacity="1" fill="url(#LinearGradient_19)"/>
<path d="M201.054+100.624C201.083+100.603+201.104+100.572+201.142+100.544C201.114+100.565+201.092+100.596+201.054+100.624L201.054+100.624Z" opacity="0.35" fill="url(#LinearGradient_20)"/>
<path d="M201.054+100.624C201.083+100.603+201.104+100.572+201.142+100.544C201.114+100.565+201.092+100.596+201.054+100.624L201.054+100.624Z" opacity="1" fill="url(#LinearGradient_21)"/>
<path d="" opacity="1" fill="url(#LinearGradient_22)"/>
<path d="" opacity="0.35" fill="url(#LinearGradient_23)"/>
<path d="" opacity="1" fill="url(#LinearGradient_24)"/>
</g>
<path d="M191.878+79.5087L199.178+79.5087C199.912+79.5087+200.612+79.542+201.278+79.6087C201.945+79.6087+202.478+79.742+202.878+80.0087C203.545+80.4754+203.878+81.342+203.878+82.6087C203.945+83.8087+204.078+84.8754+204.278+85.8087C204.545+88.0087+204.778+90.2754+204.978+92.6087C205.178+94.8754+205.412+97.142+205.678+99.4087C205.945+101.009+206.145+102.642+206.278+104.309C206.412+105.975+206.612+107.575+206.878+109.109C206.945+109.709+207.012+110.342+207.078+111.009C207.212+111.675+207.645+112.009+208.378+112.009C208.578+111.875+208.712+111.809+208.778+111.809C208.845+111.742+208.945+111.642+209.078+111.509C209.345+111.175+209.578+110.842+209.778+110.509C209.978+110.175+210.178+109.809+210.378+109.409C210.912+108.675+211.312+107.909+211.578+107.109C211.912+106.309+212.312+105.542+212.778+104.809C214.245+102.009+215.678+99.2087+217.078+96.4087C218.478+93.542+219.912+90.7087+221.378+87.9087C221.912+87.1087+222.345+86.3087+222.678+85.5087C223.078+84.642+223.478+83.842+223.878+83.1087C224.145+82.5754+224.412+82.042+224.678+81.5087C225.012+80.9754+225.412+80.542+225.878+80.2087C226.078+80.0754+226.545+79.8754+227.278+79.6087C227.678+79.4754+228.112+79.442+228.578+79.5087C229.045+79.5087+229.478+79.5087+229.878+79.5087L234.778+79.5087C235.512+79.5087+236.178+79.542+236.778+79.6087C237.445+79.6087+237.912+79.7754+238.178+80.1087C238.512+80.442+238.545+80.942+238.278+81.6087C238.078+82.2087+237.878+82.7087+237.678+83.1087C237.145+84.042+236.612+85.042+236.078+86.1087C235.545+87.1087+235.012+88.0754+234.478+89.0087C234.212+89.4754+233.978+89.942+233.778+90.4087C233.578+90.8087+233.378+91.2087+233.178+91.6087C232.712+92.342+232.278+93.0754+231.878+93.8087C231.478+94.542+231.078+95.2754+230.678+96.0087C230.612+96.2087+230.512+96.442+230.378+96.7087C230.312+96.9087+230.212+97.1087+230.078+97.3087C229.478+98.3087+228.912+99.342+228.378+100.409C227.845+101.409+227.312+102.409+226.778+103.409C225.645+105.409+224.545+107.475+223.478+109.609C222.412+111.675+221.278+113.709+220.078+115.709C219.545+116.642+219.045+117.575+218.578+118.509C218.178+119.375+217.712+120.275+217.178+121.209C216.978+121.542+216.812+121.842+216.678+122.109C216.545+122.309+216.378+122.575+216.178+122.909C215.778+123.642+215.378+124.409+214.978+125.209C214.645+125.942+214.245+126.675+213.778+127.409C213.312+128.142+212.878+128.842+212.478+129.509C212.078+130.109+211.512+130.542+210.778+130.809C210.178+131.009+209.578+131.109+208.978+131.109C208.378+131.042+207.778+131.009+207.178+131.009L200.678+131.009C199.945+131.009+199.212+131.009+198.478+131.009C197.812+131.009+197.245+130.875+196.778+130.609C196.378+130.275+196.112+129.875+195.978+129.409C195.912+128.875+195.845+128.309+195.778+127.709C195.578+126.909+195.412+126.075+195.278+125.209C195.212+124.342+195.112+123.509+194.978+122.709C194.912+122.442+194.878+122.209+194.878+122.009C194.878+121.742+194.845+121.442+194.778+121.109C194.578+120.309+194.445+119.475+194.378+118.609C194.312+117.742+194.178+116.875+193.978+116.009C193.912+115.675+193.878+115.375+193.878+115.109C193.878+114.775+193.845+114.442+193.778+114.109C193.645+113.509+193.545+112.909+193.478+112.309C193.412+111.642+193.312+111.009+193.178+110.409C193.112+110.209+193.078+110.009+193.078+109.809C193.145+109.542+193.145+109.309+193.078+109.109C192.945+108.509+192.845+107.909+192.778+107.309C192.712+106.709+192.612+106.075+192.478+105.409C192.212+103.875+191.978+102.309+191.778+100.709C191.578+99.042+191.378+97.4087+191.178+95.8087C190.778+94.0087+190.478+92.2087+190.278+90.4087C190.145+88.542+189.912+86.7087+189.578+84.9087L189.278+82.2087C189.212+82.0087+189.178+81.7754+189.178+81.5087C189.245+81.1754+189.378+80.8754+189.578+80.6087C189.845+80.142+190.378+79.8087+191.178+79.6087C191.512+79.6087+191.745+79.5754+191.878+79.5087Z" opacity="1" fill="url(#LinearGradient_25)"/>
<g opacity="1">
<path d="M235.857+77.4653C234.645+77.9653+232.514+79.5509+229.915+81.9219L231.383+86.0556C233.103+84.22+234.832+82.6027+236.522+81.2507C236.645+81.1468+236.722+81.0902+236.722+81.0902C236.659+81.1488+236.585+81.1921+236.522+81.2507C235.968+81.6982+234.289+83.1602+231.637+86.1742C233.736+86.3738+236.997+86.4184+239.678+86.3508C241.1+82.1123+239.853+79.8955+239.853+79.8955C239.853+79.8955+238.354+76.4351+235.857+77.4653Z" opacity="1" fill="url(#LinearGradient_26)"/>
<path d="M229.197+98.8321C229.21+98.8341+229.223+98.836+229.238+98.8247L228.942+98.8084C228.927+98.8197+228.901+98.8158+228.885+98.8272C228.994+98.8295+229.102+98.8318+229.197+98.8321Z" opacity="1" fill="url(#LinearGradient_27)"/>
<path d="M226.119+105.39C225.954+105.407+225.778+105.408+225.601+105.409C225.778+105.408+225.954+105.407+226.119+105.39Z" opacity="1" fill="url(#LinearGradient_28)"/>
<path d="M209.763+118.732C209.797+118.682+209.82+118.618+209.854+118.569C210.479+117.454+211.085+116.376+211.688+115.313C212.362+114.137+213.032+112.988+213.684+111.877C214.369+110.716+215.051+109.583+215.711+108.5C216.408+107.355+217.084+106.261+217.754+105.207C218.299+104.351+218.828+103.52+219.353+102.716C219.528+102.444+219.702+102.184+219.876+101.925C220.223+101.407+220.555+100.9+220.885+100.406C221.196+99.9496+221.492+99.5049+221.787+99.0602C221.89+98.9126+221.993+98.765+222.081+98.6287C222.098+98.6041+222.116+98.5795+222.133+98.5549L221.877+98.5445L221.734+98.1304C221.715+98.1682+221.683+98.2042+221.663+98.242C221.202+98.8929+220.738+99.557+220.286+100.236C220.027+100.619+219.765+101.014+219.491+101.408C218.762+102.494+218.046+103.582+217.34+104.699C216.621+105.813+215.912+106.943+215.22+108.062C214.529+109.167+213.864+110.276+213.2+111.386C212.535+112.495+211.886+113.593+211.25+114.692C210.58+115.841+209.925+116.979+209.298+118.107C209.153+118.357+209.006+118.62+208.874+118.872C208.361+119.787+207.864+120.676+207.381+121.568L207.608+122.239L207.89+122.253C207.907+122.228+207.925+122.204+207.928+122.177C208.525+120.977+209.153+119.835+209.763+118.732Z" opacity="1" fill="url(#LinearGradient_29)"/>
<path d="" opacity="1" fill="url(#LinearGradient_30)"/>
<path d="M224.297+108.662C224.024+108.676+223.752+108.677+223.481+108.677L223.481+108.677C223.616+108.684+223.766+108.679+223.902+108.671C224.037+108.678+224.174+108.671+224.297+108.662Z" opacity="1" fill="url(#LinearGradient_31)"/>
<path d="M224.297+108.662C224.024+108.676+223.752+108.677+223.481+108.677L223.481+108.677C223.616+108.684+223.766+108.679+223.902+108.671C224.037+108.678+224.174+108.671+224.297+108.662Z" opacity="0.35" fill="url(#LinearGradient_32)"/>
<path d="M225.48+105.405L225.48+105.405C225.467+105.403+225.467+105.403+225.48+105.405C225.52+105.411+225.561+105.403+225.601+105.409C225.778+105.408+225.954+105.407+226.119+105.39C225.914+105.401+225.698+105.396+225.48+105.405L225.48+105.405C225.48+105.405+225.48+105.405+225.48+105.405Z" opacity="1" fill="url(#LinearGradient_33)"/>
<path d="M225.48+105.405L225.48+105.405C225.467+105.403+225.467+105.403+225.48+105.405C225.52+105.411+225.561+105.403+225.601+105.409C225.778+105.408+225.954+105.407+226.119+105.39C225.914+105.401+225.698+105.396+225.48+105.405L225.48+105.405C225.48+105.405+225.48+105.405+225.48+105.405Z" opacity="0.35" fill="url(#LinearGradient_34)"/>
<path d="M223.931+95.0767C224.724+94.0135+225.514+92.9769+226.299+91.9668C227.117+90.9208+227.942+89.9165+228.777+88.9408C228.826+88.8803+228.876+88.8197+228.924+88.7725C229.741+87.8213+230.553+86.91+231.372+86.0404L229.902+81.92C229.729+82.0844+229.542+82.2468+229.354+82.4225C228.663+83.0668+227.937+83.7603+227.191+84.505C226.349+85.3441+225.486+86.2344+224.589+87.1739C223.77+88.0434+222.93+88.9641+222.086+89.9114C221.369+90.7283+220.651+91.5584+219.929+92.415C219.896+92.451+219.879+92.4756+219.847+92.5115L221.723+98.1151C222.468+97.0992+223.201+96.0813+223.931+95.0767Z" opacity="1" fill="url(#LinearGradient_35)"/>
<path d="M207.575+122.736C207.09+123.641+206.588+124.57+206.094+125.528C206.093+125.542+206.077+125.553+206.075+125.566C206.001+125.704+205.928+125.829+205.867+125.969C205.529+126.611+205.24+127.193+204.56+128.503C205.29+128.976+205.778+129.997+206.206+131.144C206.301+130.033+206.002+128.931+205.256+128.008C209.066+128.744+212.527+128.262+214.639+125.697C214.822+125.467+215.006+125.223+215.18+124.963C214.253+125.831+213.235+126.115+211.432+125.742L211.419+125.74L211.432+125.742C214.275+124.939+215.785+123.981+217.245+122.256C217.59+121.846+217.941+121.396+218.299+120.892C215.611+122.952+212.804+123.232+210.026+122.295L207.854+122.221C207.761+122.397+207.669+122.56+207.575+122.736Z" opacity="1" fill="url(#LinearGradient_36)"/>
<path d="M209.274+118.09C209.914+116.964+210.569+115.826+211.226+114.675C211.862+113.575+212.511+112.478+213.175+111.368C213.84+110.259+214.517+109.152+215.195+108.045C215.89+106.913+216.596+105.796+217.315+104.681C218.02+103.578+218.75+102.479+219.466+101.391C219.727+100.995+219.987+100.613+220.262+100.219C220.712+99.5531+221.175+98.889+221.639+98.2249C221.658+98.187+221.69+98.1511+221.709+98.1132L219.858+92.5267C219.809+92.5872+219.757+92.661+219.694+92.7196C218.936+93.6387+218.162+94.5692+217.411+95.5301C216.645+96.5023+215.889+97.4897+215.144+98.5057C214.516+99.3627+213.902+100.222+213.286+101.094C213.166+101.266+213.044+101.452+212.924+101.624C212.18+102.721+211.479+103.798+210.853+104.832C210.139+106.001+209.499+107.128+208.922+108.195C208.548+108.9+208.191+109.579+207.864+110.237C207.592+110.793+207.332+111.365+207.074+111.924C206.473+113.246+205.939+114.577+205.457+115.917L207.343+121.549C207.826+120.657+208.336+119.77+208.837+118.853C208.982+118.603+209.127+118.353+209.274+118.09Z" opacity="1" fill="url(#LinearGradient_37)"/>
<path d="M205.39+116.097C204.813+117.721+204.329+119.358+203.964+121.013C203.956+121.066+203.933+121.13+203.925+121.183C203.297+119.735+201.258+118.107+201.27+118.123C202.524+120.666+203.396+123.126+203.24+125.394C202.365+125.442+201.234+125.019+199.966+124.331C201.184+125.825+202.18+126.337+202.577+126.49C201.278+126.381+199.807+127.073+198.303+127.897C200.4+127.377+202.053+127.294+203.155+127.727C200.583+132.597+197.931+138.011+195.229+143.77C195.81+143.692+196.198+143.356+196.458+142.879C196.936+141.837+200.151+134.988+204.903+126.072C205.035+125.82+205.18+125.57+205.314+125.305C205.352+125.23+205.388+125.167+205.426+125.091C205.929+124.162+206.449+123.208+206.985+122.229C207.113+122.003+207.226+121.79+207.354+121.564L207.356+121.551L205.471+115.919C205.434+115.981+205.413+116.032+205.39+116.097Z" opacity="1" fill="url(#LinearGradient_38)"/>
<path d="M222.081+98.6287C221.978+98.7763+221.89+98.9126+221.787+99.0602C221.492+99.5049+221.183+99.9476+220.885+100.406C220.555+100.9+220.223+101.407+219.876+101.925C219.702+102.184+219.528+102.444+219.353+102.716C218.828+103.52+218.299+104.351+217.754+105.207C217.084+106.261+216.408+107.355+215.711+108.5C215.051+109.583+214.369+110.716+213.684+111.877C213.032+112.988+212.364+114.124+211.688+115.313C211.086+116.363+210.479+117.454+209.854+118.569C209.82+118.618+209.797+118.682+209.763+118.732C209.153+119.835+208.525+120.977+207.893+122.145C207.875+122.17+207.858+122.194+207.854+122.221L210.026+122.295C209.988+122.276+209.949+122.27+209.897+122.249C212.506+122.307+216.184+120.894+218.721+118.853C219.889+117.912+220.992+116.773+222.061+115.397C222.862+114.376+223.627+113.227+224.4+111.931C225.067+110.808+225.735+109.578+226.393+108.237C225.764+108.457+225.054+108.583+224.288+108.633C224.151+108.64+224.014+108.647+223.878+108.654C223.741+108.661+223.606+108.655+223.457+108.66L223.457+108.66L223.457+108.66L223.457+108.66C225.98+108.095+227.739+106.55+229.147+104.533C228.46+104.866+227.357+105.274+226.095+105.373C225.93+105.39+225.753+105.391+225.577+105.392C225.537+105.386+225.495+105.394+225.442+105.386L225.442+105.386L225.442+105.386L225.442+105.386L225.442+105.386L225.442+105.386C226.316+105.161+227.075+104.88+227.754+104.505C227.9+104.431+228.036+104.343+228.171+104.254C228.38+104.122+228.578+103.975+228.775+103.828C228.899+103.724+229.021+103.633+229.145+103.529C229.424+103.286+229.695+103.013+229.943+102.711C230.025+102.614+230.105+102.531+230.173+102.433C230.276+102.285+230.377+102.151+230.465+102.015C230.894+101.4+231.247+100.841+231.538+100.342C231.683+100.092+231.811+99.8665+231.923+99.6526C231.964+99.5636+232.015+99.4898+232.055+99.4007C232.172+99.1603+232.285+98.9463+232.367+98.755C232.489+98.4747+232.578+98.2436+232.629+98.0749L232.629+98.0749L232.629+98.0749C232.54+98.1296+232.437+98.1823+232.324+98.2199C231.544+98.5394+230.252+98.7565+229.229+98.7962L231.224+98.8721L229.229+98.7962C229.216+98.7943+229.202+98.7923+229.187+98.8037C229.092+98.8033+228.984+98.801+228.874+98.812C228.889+98.8006+228.916+98.8045+228.931+98.7932L222.108+98.5378C222.114+98.5928+222.096+98.6174+222.081+98.6287Z" opacity="1" fill="url(#LinearGradient_39)"/>
<path d="M231.637+86.1742C230.905+87.0024+230.101+87.9555+229.226+89.0203C229.177+89.0808+229.129+89.128+229.093+89.1905C228.332+90.1229+227.532+91.1443+226.674+92.2794C225.934+93.2555+225.158+94.2941+224.34+95.4349C223.626+96.4149+222.903+97.4613+222.131+98.5682L228.954+98.8236C231.037+98.2074+232.032+97.5263+233.055+96.4697C233.327+96.1842+233.603+95.8723+233.882+95.547C234.73+94.5732+235.58+93.4913+236.35+92.3976C237.102+91.3419+237.785+90.2897+238.318+89.3374C238.666+88.7241+238.952+88.156+239.176+87.6465C239.364+87.1995+239.521+86.7752+239.663+86.3621C236.997+86.4184+233.736+86.3738+231.637+86.1742Z" opacity="1" fill="url(#LinearGradient_40)"/>
<path d="M223.9+108.685C223.764+108.692+223.629+108.686+223.479+108.691L223.479+108.691C223.616+108.684+223.752+108.677+223.9+108.685Z" opacity="1" fill="url(#LinearGradient_41)"/>
<path d="M223.9+108.685C223.764+108.692+223.629+108.686+223.479+108.691L223.479+108.691C223.616+108.684+223.752+108.677+223.9+108.685Z" opacity="0.35" fill="url(#LinearGradient_42)"/>
<path d="M223.9+108.685C223.764+108.692+223.629+108.686+223.479+108.691L223.479+108.691C223.616+108.684+223.752+108.677+223.9+108.685Z" opacity="1" fill="url(#LinearGradient_43)"/>
<path d="M225.467+105.403C225.506+105.409+225.548+105.401+225.601+105.409C225.561+105.403+225.52+105.411+225.467+105.403L225.467+105.403Z" opacity="1" fill="url(#LinearGradient_44)"/>
<path d="M225.467+105.403C225.506+105.409+225.548+105.401+225.601+105.409C225.561+105.403+225.52+105.411+225.467+105.403L225.467+105.403Z" opacity="0.35" fill="url(#LinearGradient_45)"/>
<path d="M225.467+105.403C225.506+105.409+225.548+105.401+225.601+105.409C225.561+105.403+225.52+105.411+225.467+105.403L225.467+105.403Z" opacity="1" fill="url(#LinearGradient_46)"/>
<path d="" opacity="1" fill="url(#LinearGradient_47)"/>
<path d="" opacity="0.35" fill="url(#LinearGradient_48)"/>
<path d="" opacity="1" fill="url(#LinearGradient_49)"/>
</g>
</g>
<path d="M106.106+328.349L95.0937+338.322C95.0937+338.322+100.496+345.074+107.664+349.126C114.832+353.177+118.785+352.872+126.833+352.765C134.571+352.765+142.466+351.307+148.803+345.698C155.14+340.088+156.338+338.55+156.31+331.476C156.297+328.157+155.417+320.827+151.4+316.09C146.857+310.734+139.116+308.14+139.116+308.14C139.116+308.14+115.405+302.193+117.845+293.962C118.869+290.508+124.342+289.203+129.723+290.153C136.531+291.353+143.414+295.448+143.414+295.448L153.036+286.032C153.036+286.032+148.653+280.881+141.843+277.548C136.803+275.082+129.852+274.175+125.401+274.159C114.936+274.12+101.852+283.465+100.288+293.131C99.1453+300.195+101.437+306.159+106.625+310.688C113.17+316.402+117.827+317.146+117.827+317.146C117.827+317.146+138.706+322.523+138.706+329.019C138.706+335.516+133.636+337.905+125.532+338.009C117.429+338.113+106.106+328.349+106.106+328.349Z" opacity="1" fill="#5ba67c"/>
<path d="M256.609+277.674L256.775+292.799L265.418+292.799L265.501+337.594C265.501+337.594+266.998+342.747+270.903+346.57C275.944+351.504+281.209+352.765+281.209+352.765L298.162+352.765L298.246+337.345L289.104+337.262C289.104+337.262+287.109+337.346+284.866+335.184C282.538+332.94+282.622+330.032+282.622+330.032L282.788+292.716L299.41+292.716L299.493+277.59L282.871+277.507L282.705+248.252L265.418+248.252L265.584+277.673L256.609+277.673L256.609+277.674Z" opacity="1" fill="#5ba67c"/>
<path d="M221.835+281.288C211.422+278.988+200.85+280.145+194.097+284.093L202.928+248.252L185.319+243.941L160.282+344.867L177.735+349.905L180.142+340.019C185.267+349.714+191.107+354.379+202.304+356.917C223.082+361.627+241.625+347.142+246.63+324.782C250.923+305.597+237.834+284.82+221.835+281.288ZM226.896+337.188L201.837+344.088L183.145+325.159L189.516+299.331L214.578+292.431L233.267+311.36L226.896+337.188Z" opacity="1" fill="#5ba67c"/>
<path stroke="#3a89d5" stroke-width="9.94" d="M196.323+236.586L150.123+156.564L242.524+156.564L196.323+236.586Z" fill="#3a89d5" stroke-linecap="round" opacity="1" stroke-linejoin="round"/>
</g>
</svg>
